# xmcd CD database file
#
# Track frame offsets:
#	150
#	19752
#	38806
#	55541
#	71072
#	101652
#	124792
#	143262
#	161439
#	194509
#	205185
#	223236
#
# Disc length: 3187 seconds
#
# Revision: 1
# Processed by: cddbd v1.5.2PL0 Copyright (c) Steve Scherf et al.
# Submitted via: CDex 1.91
#
DISCID=a80c710c
DTITLE=COTTON BELLY'S - RAINY ROAD
DYEAR=2015
DGENRE=Blues
TTITLE0=COTTON BELLY'S - RAINY ROAD
TTITLE1=COTTON BELLY'S - SOBAD
TTITLE2=COTTON BELLY'S - MEDICINE
TTITLE3=COTTON BELLY'S - GIVEN
TTITLE4=COTTON BELLY'S - WRONG
TTITLE5=COTTON BELLY'S - FAMILY CHAINS
TTITLE6=COTTON BELLY'S - MY FRIEND
TTITLE7=COTTON BELLY'S - HARD TIMES
TTITLE8=COTTON BELLY'S - SOLDIER
TTITLE9=COTTON BELLY'S - TIC TOC AM
TTITLE10=COTTON BELLY'S - TIC TOC PM
TTITLE11=COTTON BELLY'S - FROM THIS TOWN
EXTD=YEAR: 2015
EXTT0=
EXTT1=
EXTT2=
EXTT3=
EXTT4=
EXTT5=
EXTT6=
EXTT7=
EXTT8=
EXTT9=
EXTT10=
EXTT11=
PLAYORDER=
